<?xml version="1.0" encoding="UTF-8"?>
<svg version="1.1" viewBox="0 0 128 128" xmlns="http://www.w3.org/2000/svg">
<g transform="matrix(.80469 0 0 .80469 12.761 17.987)">
<svg width="128" height="115" data-background-color="#096a2e" viewBox="0 0 95 86" xmlns="http://www.w3.org/2000/svg" xmlns:xlink="http://www.w3.org/1999/xlink">
<g transform="translate(-.2405 -.23861)">
<svg width="95.481" height="86.477" viewBox="0 0 95.481 86.47721590130975">
<svg width="95.481" height="86.477" viewBox="0 0 95.481 86.47721590130975">
<svg width="95.481" height="86.477" viewBox="0 0 95.481 86.47721590130975">
<svg width="95.481" height="86.477" viewBox="0 0 95.481 86.47721590130975">
<svg width="95.481" height="86.477" viewBox="0 0 95.481 86.47721590130975">
<svg width="95.481" height="86.477" viewBox="0 0 95.481 86.47721590130975">
<svg class="icon-icon-0" width="95.481" height="86.477" enable-background="new 0 0 96 96" fill="#476930" data-fill-palette-color="accent" version="1.1" viewBox="2 6.335 92.00499999999998 83.32900000000002" xml:space="preserve" xmlns="http://www.w3.org/2000/svg" xmlns:xlink="http://www.w3.org/1999/xlink"><path d="m32.524 18.46 8.716-8.712c0.78-0.78 0.78-2.048 0-2.828s-2.048-0.78-2.828 0l-10.24 10.236c-0.152 0.152-0.248 0.328-0.336 0.508h-2.9c-13.796 0-22.936 34.72-22.936 48.788 0 14.096 9.004 23.212 22.936 23.212h4.192c13.928 0 22.933-9.107 22.933-23.212 3e-3 -12.872-7.665-42.96-19.537-47.992z" data-fill-palette-color="accent"/><path d="m63.764 39.968c0.156 0.04 0.32 0.06 0.484 0.06 0.432 0 0.863-0.144 1.216-0.412 0.484-0.368 0.769-0.936 0.784-1.548 0.1-4.956 0.416-20.04-13.309-22.252-0.92-0.156-1.848 0.376-2.184 1.26-1.939 5.06-1.852 9.86 0.248 13.884 2.253 4.328 6.789 7.528 12.761 9.008z" data-fill-palette-color="accent"/><path d="m71.973 41.972 7.252-7.256c0.779-0.78 0.779-2.048 0-2.828-0.776-0.78-2.049-0.78-2.828 0l-9.448 9.456c-0.093 0.092-0.14 0.212-0.216 0.32h-3.097c-3.911 0-7.696 1.044-11.168 2.82 2.425 8.872 3.597 17.388 3.597 21.976 0 8.132-2.709 14.937-7.42 19.704 4.151 2.256 9.287 3.5 14.996 3.5h4.728c15.575 0 25.636-8.492 25.636-21.637-9e-3 -13.031-9.776-24.183-22.032-26.055z" data-fill-palette-color="accent"/></svg>
</svg>
</svg>
</svg>
</svg>
</svg>
</svg>
<rect width="95.481" height="86.477" fill="none" visibility="hidden"/>
</g>
</svg>
</g>
</svg>
