<?xml version="1.0" encoding="UTF-8"?>
<svg version="1.1" viewBox="0 0 1000 1000" xmlns="http://www.w3.org/2000/svg">
<rect width="1e3" height="1e3" fill="red"/>
<g transform="matrix(.7 0 0 .7 149.58 427.82)">
<svg width="1e3" height="207" data-background-color="red" viewBox="0 0 396 82" xmlns="http://www.w3.org/2000/svg" xmlns:xlink="http://www.w3.org/1999/xlink">
<g transform="translate(.24 -.15517)">
<svg width="395.52" height="82.31" viewBox="0 0 395.52 82.31034398199166">
<svg width="395.52" height="82.31" viewBox="0 0 550.6222258750964 114.58814931206791">
<rect class="rect-o-0" x="138.52" y="7.5452" width="4.5839" height="99.498" rx="1%" fill="#476930" stroke="transparent" stroke-width="0" data-fill-palette-color="primary" data-palette-color="#476930"/>
<g transform="translate(155.1 15.837)">
<svg width="395.52" height="82.915" viewBox="0 0 395.52 82.91472453839935">
<svg width="395.52" height="82.915" viewBox="0 0 395.52 82.91472453839935">
<svg width="395.52" height="50.83" viewBox="0 0 395.52 50.83013185067514">
<g>
<svg width="395.52" height="50.83" data-palette-color="#476930" viewBox="1.25 -36 314.7200012207031 40.45000076293945">
<path class="wordmark-text-0" d="m10.95 4.35q-2.7 0-4.9-1.47-2.2-1.48-3.5-4.28t-1.3-6.7q0-3.85 1.2-7.8t3.3-7.55 4.75-6.4 5.63-4.45q2.97-1.65 5.87-1.65 2 0 3.2 0.8t1.73 2.1q0.52 1.3 0.52 2.85 0 1.75-0.6 3.45t-1.62 2.8q-1.03 1.1-2.28 1.1-0.45 0-0.9-0.28-0.45-0.27-0.85-1.02 0.75-0.5 1.68-1.78 0.92-1.27 1.6-2.85 0.67-1.57 0.67-2.87 0-1.1-0.65-1.83-0.65-0.72-2.25-0.72-2.2 0-4.52 1.72-2.33 1.73-4.5 4.6-2.18 2.88-3.93 6.4-1.75 3.53-2.75 7.23t-1 7q0 4.55 1.93 7.1 1.92 2.55 4.77 2.55 1.95 0 3.7-1.37 1.75-1.38 3.1-3.61 1.35-2.22 2.15-4.82t1-5.05q-1.65-0.35-2.85-0.48-1.2-0.12-2.35-0.12-0.7 0-1.45 0.02-0.75 0.03-1.7 0.08 0.4-1.55 1.3-2.23 0.9-0.67 2.3-0.67 1.45 0 2.98 0.47 1.52 0.48 3.02 1.03t2.7 0.9l-0.4 1.55q-0.9 2.6-1.5 4.45t-0.92 3.22q-0.33 1.38-0.43 2.45-0.1 1.08-0.1 2.08t0.05 1.97q0.05 0.98 0.1 2.18-1-0.3-1.67-0.85-0.68-0.55-0.95-1.3-0.28-0.75-0.28-1.65 0-0.45 0.05-0.9t0.2-0.95q-1.8 2.35-4.12 3.95-2.33 1.6-5.23 1.6zm25.65-3.05q-1.75 0-2.78-0.92-1.02-0.93-1.02-2.43t0.7-3.13q0.7-1.62 1.37-3.22 0.68-1.6 0.68-2.85 0-1.45-0.85-2.23-0.85-0.77-1.85-1.37-1.1 2.85-2.4 5.47-1.3 2.63-2.1 4.03l-0.55-1.05q0.7-1.3 1.82-3.78 1.13-2.47 2.23-5.57-0.5-0.5-0.5-1.25 0-1.45 0.82-2.45 0.83-1 1.33-1 0.6 0 0.72 0.52 0.13 0.53 0.13 0.78t-0.25 0.95-0.3 0.9q0.05 0.65 0.82 1.23 0.78 0.57 1.8 1.27 1.03 0.7 1.8 1.75 0.78 1.05 0.78 2.65 0 1.45-0.63 3-0.62 1.55-1.25 2.9-0.62 1.35-0.62 2.4 0 0.8 0.42 1.07 0.43 0.28 0.98 0.28 1.2 0 2.47-0.73 1.28-0.72 2.5-1.87 1.23-1.15 2.18-2.43 0.95-1.27 1.4-2.37l0.85 0.65q-0.95 2.1-2.65 4.15t-3.78 3.35q-2.07 1.3-4.27 1.3zm11.35 1.05q-1.6 0-2.73-1.05-1.12-1.05-1.12-3.2 0-1.75 0.8-3.83 0.8-2.07 2.2-4.1 1.4-2.02 3.17-3.67 1.78-1.65 3.78-2.65t4-1 3.37 1.05q1.38 1.05 1.38 2.8 0 1.25-0.78 1.75-0.77 0.5-1.92 0.45 0.1-0.45 0.17-0.9 0.08-0.45 0.08-0.9 0-1.1-0.5-1.93-0.5-0.82-1.85-0.82-1.4 0-2.85 0.97-1.45 0.98-2.78 2.58-1.32 1.6-2.37 3.47-1.05 1.88-1.65 3.68t-0.6 3.25q0 1.85 1.25 1.85 1.15 0 2.52-1.1 1.38-1.1 2.8-2.78 1.43-1.67 2.73-3.47t2.3-3.2q0.15-0.3 0.3-0.3 0.25 0.05 0.75 0.2t0.9 0.45 0.4 0.75-0.43 1.22q-0.42 0.78-1 1.75-0.57 0.98-1 1.98-0.42 1-0.42 1.85 0 0.75 0.37 1.43 0.38 0.67 1.23 0.67 1.3 0 3.5-1.93 2.2-1.92 4.45-5.97l0.65 0.65q-1.1 2.7-2.75 4.77-1.65 2.08-3.53 3.23-1.87 1.15-3.72 1.15-1.9 0-2.83-1.17-0.92-1.18-0.92-2.53 0-0.25 0.02-0.5 0.03-0.25 0.08-0.55-2.1 2.75-3.85 4.18-1.75 1.42-3.6 1.42zm22.49-0.85q-0.85 0-1.77-0.45-0.93-0.45-1.53-1.4t-0.6-2.45q0-1.65 0.8-3.7t2.15-4.08q1.35-2.02 3.13-3.75 1.77-1.72 3.72-2.74 1.95-1.03 3.9-1.03 1.1 0 1.7 0.37 0.6 0.38 0.6 1.18 0 0.2-0.05 0.42-0.05 0.23-0.25 0.43-0.2-0.35-0.7-0.53-0.5-0.17-1.15-0.17-1.6 0-3.12 0.97-1.53 0.98-2.78 2.5-1.25 1.53-2.2 3.3-0.95 1.78-1.47 3.4-0.53 1.63-0.53 2.78 0 1.05 0.48 1.67 0.47 0.63 1.27 0.63 1.35 0 3.25-1.65t3.9-4.7 3.6-7.2q1.1-2.9 2.28-5.9 1.17-3 2.37-5.75t2.35-4.93q1.15-2.17 2.2-3.45 1.05-1.27 1.85-1.27 0.45 0 0.8 0.35t0.35 0.9q0 0.85-0.82 2.75-0.83 1.9-2.13 4.55t-2.77 5.75q-1.48 3.1-2.78 6.32-1.3 3.23-2.12 6.28-0.83 3.05-0.83 5.6 0 1.35 0.18 1.95 0.17 0.6 0.92 0.6 1.05 0 2.45-0.88 1.4-0.87 2.8-2.52t2.45-4l0.75 0.6q-1 2.6-2.67 4.65-1.68 2.05-3.58 3.23-1.9 1.17-3.65 1.17-1.95 0-2.7-1.25t-0.75-2.7q0-0.85 0.23-2.05 0.22-1.2 0.57-2.6-1.6 2.5-3.37 4.52-1.78 2.03-3.48 3.16-1.7 1.12-3.25 1.12zm24.6-0.15q-2.05 0-3.05-1.25t-1-3q0-1.15 0.43-2.9 0.42-1.75 1.12-3.67 0.7-1.93 1.63-3.63 0.92-1.7 2-2.78 1.07-1.07 2.12-1.07 0.5 0 0.85 0.3t0.35 0.9-0.77 1.95q-0.78 1.35-1.8 3.07-1.03 1.73-1.8 3.63-0.78 1.9-0.78 3.6 0 1.75 0.58 2.32 0.57 0.58 1.77 0.58 1.7 0 3.65-1.7t4.1-5.95l0.55 0.6q-1.55 4.3-4.25 6.65t-5.7 2.35zm5.95-22.75q-0.85 0-1.52-0.43-0.68-0.42-0.68-1.32 0-1.1 1.25-1.9t2.5-0.8q0.8 0 1.33 0.35 0.52 0.35 0.52 1.3t-1.07 1.87q-1.08 0.93-2.33 0.93zm18.8 22.4q-1.85 0-2.78-0.92-0.92-0.93-0.92-2.38 0-1 0.37-2.15 0.38-1.15 0.73-2.35t0.35-2.3q0-1.3-0.55-1.8t-1.35-0.5q-1.55 0-3.15 1.25t-3.08 3.2q-1.47 1.95-2.77 4t-2.3 3.7q-0.85 0-1.63-0.3-0.77-0.3-1.22-0.9 0-0.25 0.52-1.55 0.53-1.3 1.23-3.15t1.22-3.85q0.53-2 0.53-3.6 0.3-0.4 0.97-0.75 0.68-0.35 1.43-0.35 1.5 0 1.5 1.35 0 0.75-0.38 2.37-0.37 1.63-0.97 3.53 1.3-1.95 2.95-3.83 1.65-1.87 3.47-3.1 1.83-1.22 3.63-1.22 2.05 0 2.97 1.42 0.93 1.43 0.93 3.13 0 1.55-0.5 2.85t-1.03 2.5q-0.52 1.2-0.52 2.4 0 1 0.42 1.37 0.43 0.38 0.98 0.38 1.25 0 2.52-1.15 1.28-1.15 2.45-2.95 1.18-1.8 2.08-3.65l0.65 0.7q-1.05 2.45-2.38 4.37-1.32 1.93-2.9 3.08-1.57 1.15-3.47 1.15zm9.55 1.35q-1.6 0-2.73-1.05-1.12-1.05-1.12-3.2 0-1.75 0.8-3.83 0.8-2.07 2.2-4.1 1.4-2.02 3.17-3.67 1.78-1.65 3.78-2.65t4-1 3.37 1.05q1.38 1.05 1.38 2.8 0 1.25-0.78 1.75-0.77 0.5-1.92 0.45 0.1-0.45 0.17-0.9 0.08-0.45 0.08-0.9 0-1.1-0.5-1.93-0.5-0.82-1.85-0.82-1.4 0-2.85 0.97-1.45 0.98-2.78 2.58-1.32 1.6-2.37 3.47-1.05 1.88-1.65 3.68t-0.6 3.25q0 1.85 1.25 1.85 1.15 0 2.52-1.1 1.38-1.1 2.8-2.78 1.43-1.67 2.73-3.47t2.3-3.2q0.15-0.3 0.3-0.3 0.25 0.05 0.75 0.2t0.9 0.45 0.4 0.75-0.43 1.22q-0.42 0.78-1 1.75-0.57 0.98-1 1.98-0.42 1-0.42 1.85 0 0.75 0.37 1.43 0.38 0.67 1.23 0.67 1.3 0 3.5-1.93 2.2-1.92 4.45-5.97l0.65 0.65q-1.1 2.7-2.75 4.77-1.65 2.08-3.53 3.23-1.87 1.15-3.72 1.15-1.9 0-2.83-1.17-0.92-1.18-0.92-2.53 0-0.25 0.02-0.5 0.03-0.25 0.08-0.55-2.1 2.75-3.85 4.18-1.75 1.42-3.6 1.42zm52.89 2q-1.8 0-4.02-0.75-2.23-0.75-4.55-1.82-2.33-1.08-4.63-2.03-1.25 1.35-2.62 2.13-1.38 0.77-2.98 0.77-1.65 0-2.82-0.75-1.18-0.75-1.8-1.8-0.63-1.05-0.63-1.9 0-0.95 0.85-1.63 0.85-0.67 2.95-0.67 1.35 0 2.93 0.3 1.57 0.3 3.27 0.75 1.2-2.1 2.2-4.85t2-5.85 1.95-6.15q-2.35-0.8-3.67-2.28-1.33-1.47-1.33-3.12 0-0.9 0.4-1.83 0.4-0.92 1.2-1.57t1.85-0.65q-0.45 0.6-0.6 1.57-0.15 0.98-0.15 1.63 0 1.8 0.78 3.05 0.77 1.25 1.97 1.9 1-2.95 2.08-5.6 1.07-2.65 2.37-4.73 1.3-2.07 2.88-3.27 1.57-1.2 3.52-1.2 1.05 0 2.23 0.45 1.17 0.45 2.02 1.57 0.85 1.13 0.85 3.18 0 1.7-0.72 3.67-0.73 1.98-2.2 3.75-1.48 1.78-3.78 2.9-2.3 1.13-5.5 1.23-0.05 0-0.22 0-0.18 0-0.58 0-0.95 3-2.05 6.07-1.1 3.08-2.35 5.85-1.25 2.78-2.65 4.98 2.15 0.65 4.53 1.35 2.37 0.7 4.62 1.18 2.25 0.47 4.1 0.47 1.1 0 2-0.22 0.9-0.23 1.8-0.68-0.85 2.5-2.22 3.55-1.38 1.05-3.28 1.05zm-19.1-3.3q1.15 0 2.08-0.57 0.92-0.58 1.72-1.63-1.55-0.6-3-1t-2.55-0.4q-0.95 0-1.32 0.28-0.38 0.27-0.38 0.72 0 0.85 0.98 1.73 0.97 0.87 2.47 0.87zm15-21.5q2.25-0.05 4.03-1.33 1.77-1.27 3.02-3.12t1.9-3.8 0.65-3.4q0-1.4-0.52-1.9-0.53-0.5-1.23-0.5-1.5 0-2.82 1.95-1.33 1.95-2.55 5.12-1.23 3.18-2.48 6.98zm15.3 22.8q-1.6 0-2.73-1.05-1.12-1.05-1.12-3.2 0-1.75 0.8-3.83 0.8-2.07 2.2-4.1 1.4-2.02 3.17-3.67 1.78-1.65 3.78-2.65t4-1 3.37 1.05q1.38 1.05 1.38 2.8 0 1.25-0.78 1.75-0.77 0.5-1.92 0.45 0.1-0.45 0.17-0.9 0.08-0.45 0.08-0.9 0-1.1-0.5-1.93-0.5-0.82-1.85-0.82-1.4 0-2.85 0.97-1.45 0.98-2.78 2.58-1.32 1.6-2.37 3.47-1.05 1.88-1.65 3.68t-0.6 3.25q0 1.85 1.25 1.85 1.15 0 2.52-1.1 1.38-1.1 2.8-2.78 1.43-1.67 2.73-3.47t2.3-3.2q0.15-0.3 0.3-0.3 0.25 0.05 0.75 0.2t0.9 0.45 0.4 0.75-0.43 1.22q-0.42 0.78-1 1.75-0.57 0.98-1 1.98-0.42 1-0.42 1.85 0 0.75 0.37 1.43 0.38 0.67 1.23 0.67 1.3 0 3.5-1.93 2.2-1.92 4.45-5.97l0.65 0.65q-1.1 2.7-2.75 4.77-1.65 2.08-3.53 3.23-1.87 1.15-3.72 1.15-1.9 0-2.83-1.17-0.92-1.18-0.92-2.53 0-0.25 0.02-0.5 0.03-0.25 0.08-0.55-2.1 2.75-3.85 4.18-1.75 1.42-3.6 1.42zm52.89 2q-1.8 0-4.02-0.75-2.23-0.75-4.55-1.82-2.33-1.08-4.63-2.03-1.25 1.35-2.62 2.13-1.38 0.77-2.98 0.77-1.65 0-2.82-0.75-1.18-0.75-1.8-1.8-0.63-1.05-0.63-1.9 0-0.95 0.85-1.63 0.85-0.67 2.95-0.67 1.35 0 2.93 0.3 1.57 0.3 3.27 0.75 1.2-2.1 2.2-4.85t2-5.85 1.95-6.15q-2.35-0.8-3.67-2.28-1.33-1.47-1.33-3.12 0-0.9 0.4-1.83 0.4-0.92 1.2-1.57t1.85-0.65q-0.45 0.6-0.6 1.57-0.15 0.98-0.15 1.63 0 1.8 0.78 3.05 0.77 1.25 1.97 1.9 1-2.95 2.08-5.6 1.07-2.65 2.37-4.73 1.3-2.07 2.88-3.27 1.57-1.2 3.52-1.2 1.05 0 2.23 0.45 1.17 0.45 2.02 1.57 0.85 1.13 0.85 3.18 0 1.7-0.72 3.67-0.73 1.98-2.2 3.75-1.48 1.78-3.78 2.9-2.3 1.13-5.5 1.23-0.05 0-0.22 0-0.18 0-0.58 0-0.95 3-2.05 6.07-1.1 3.08-2.35 5.85-1.25 2.78-2.65 4.98 2.15 0.65 4.53 1.35 2.37 0.7 4.62 1.18 2.25 0.47 4.1 0.47 1.1 0 2-0.22 0.9-0.23 1.8-0.68-0.85 2.5-2.22 3.55-1.38 1.05-3.28 1.05zm-19.1-3.3q1.15 0 2.08-0.57 0.92-0.58 1.72-1.63-1.55-0.6-3-1t-2.55-0.4q-0.95 0-1.32 0.28-0.38 0.27-0.38 0.72 0 0.85 0.98 1.73 0.97 0.87 2.47 0.87zm15-21.5q2.25-0.05 4.03-1.33 1.77-1.27 3.02-3.12t1.9-3.8 0.65-3.4q0-1.4-0.52-1.9-0.53-0.5-1.23-0.5-1.5 0-2.82 1.95-1.33 1.95-2.55 5.12-1.23 3.18-2.48 6.98zm15.6 21.95q-1.7 0-2.72-1.55-1.03-1.55-1.03-3.55 0-1.45 0.45-3.35t1.18-3.73q0.72-1.82 1.47-3.02t1.35-1.2q0.25 0 0.9 0.3t1.1 0.8q-0.55 0.85-1.35 2.55t-1.4 3.67q-0.6 1.98-0.6 3.63 0 0.35 0.1 1.15t0.48 1.45q0.37 0.65 1.12 0.65 0.95 0 1.93-0.98 0.97-0.97 2-2.49 1.02-1.53 2-3.28 0.97-1.75 1.77-3.4t1.35-2.75q0.35 0.05 0.98 0.22 0.62 0.18 1.12 0.45 0.5 0.28 0.5 0.78 0 0.2-0.5 1.3t-1.15 2.67q-0.65 1.58-1.15 3.2-0.5 1.63-0.5 2.88 0 0.85 0.35 1.37 0.35 0.53 1.2 0.53 1.05 0 2.53-0.95 1.47-0.95 3.02-2.75t2.75-4.35l0.7 0.5q-1.05 2.7-2.77 4.8-1.73 2.1-3.65 3.28-1.93 1.17-3.78 1.17-1.35 0-2.1-0.55t-1.05-1.48q-0.3-0.92-0.35-1.97 0-0.5 0.08-1 0.07-0.5 0.17-1-0.9 1.55-1.92 2.92-1.03 1.38-2.18 2.23t-2.4 0.85zm23.65 1.3q-2.45 0-4.08-1.6-1.62-1.6-1.62-4.85 0-2.5 0.95-4.88 0.95-2.37 2.55-4.25 1.6-1.87 3.57-3 1.98-1.12 3.93-1.12 2.05 0 2.85 1.15t0.8 2.5q0 1.4-0.68 2.57-0.67 1.18-1.82 1.18-0.85 0-1.45-0.8 0.65-0.4 1.2-1.53 0.55-1.12 0.55-2.37 0-0.5-0.23-0.8-0.22-0.3-0.82-0.3-1.3 0-2.73 1.17-1.42 1.18-2.62 3.03t-1.95 3.92q-0.75 2.08-0.75 3.83 0 1.5 0.72 2.77 0.73 1.28 2.88 1.28 1.95 0 4-1.1t3.8-3.13q1.75-2.02 2.85-4.77l0.75 0.6q-1.15 3.05-3.2 5.43-2.05 2.37-4.5 3.72t-4.95 1.35zm13.4-0.45q-1.6 0-2.73-1.05-1.12-1.05-1.12-3.2 0-1.75 0.8-3.83 0.8-2.07 2.2-4.1 1.4-2.02 3.17-3.67 1.78-1.65 3.78-2.65t4-1 3.37 1.05q1.38 1.05 1.38 2.8 0 1.25-0.78 1.75-0.77 0.5-1.92 0.45 0.1-0.45 0.17-0.9 0.08-0.45 0.08-0.9 0-1.1-0.5-1.93-0.5-0.82-1.85-0.82-1.4 0-2.85 0.97-1.45 0.98-2.78 2.58-1.32 1.6-2.37 3.47-1.05 1.88-1.65 3.68t-0.6 3.25q0 1.85 1.25 1.85 1.15 0 2.52-1.1 1.38-1.1 2.8-2.78 1.43-1.67 2.73-3.47t2.3-3.2q0.15-0.3 0.3-0.3 0.25 0.05 0.75 0.2t0.9 0.45 0.4 0.75-0.43 1.22q-0.42 0.78-1 1.75-0.57 0.98-1 1.98-0.42 1-0.42 1.85 0 0.75 0.37 1.43 0.38 0.67 1.23 0.67 1.3 0 3.5-1.93 2.2-1.92 4.45-5.97l0.65 0.65q-1.1 2.7-2.75 4.77-1.65 2.08-3.53 3.23-1.87 1.15-3.72 1.15-1.9 0-2.83-1.17-0.92-1.18-0.92-2.53 0-0.25 0.02-0.5 0.03-0.25 0.08-0.55-2.1 2.75-3.85 4.18-1.75 1.42-3.6 1.42z" fill="#476930" data-fill-palette-color="primary"/>
</svg>
</g>
</svg>
<g transform="translate(0 62.83)">
<svg width="232.21" height="20.085" viewBox="0 0 232.209792 20.08481848094423">
<g>
<svg width="232.21" height="20.085" data-palette-color="#476930" viewBox="2.1500000953674316 -39 554.8899536132812 48">
<path class="slogan-text-1" d="m23.6-24.55v13.2h-2.55l-0.85-5.1h-8.35v13.1l5.85 0.95v2.4h-15.55v-2.15l4.7-1.2v-29.45l-4.7-1.05v-2.15h28.15v10.7h-2.7l-1.6-7.8h-14.15v13.65h8.35l0.85-5.1h2.55zm25.05 0.45q-0.2-0.15-0.48-0.23-0.27-0.07-0.52-0.07-0.6 0-1.3 0.55t-1.35 1.47q-0.65 0.93-1.2 2.13-0.7 1.7-1.1 3.72-0.4 2.03-0.4 4.18v9.35l5.4 0.95v2.05h-14.1v-2.05l3.85-0.95v-21l-3.85-0.95v-2.05h7.2l1.1 6.6h0.2q1.15-3.4 3.1-5.25t4.3-1.85q1.95 0 3.25 1.22 1.3 1.23 1.3 3.28 0 1.5-0.78 2.37-0.77 0.88-2.07 0.88t-2.05-0.83q-0.75-0.82-0.75-2.17 0-0.3 0.05-0.58 0.05-0.27 0.2-0.77zm7.5-2.9h8.2v14.15q0 3.2 0.17 4.82 0.18 1.63 0.63 2.53 0.55 1.2 1.65 1.82 1.1 0.63 2.55 0.63 1.35 0 2.6-0.5t2.2-1.35q2.05-1.85 2.25-5.75v-13.35l-4.35-0.95v-2.05h9.2v24l3.85 0.95v2.05l-7.75 0.5-0.55-5.5h-0.2q-1.45 2.55-3.95 4.02-2.5 1.48-5.35 1.48-1.9 0-3.48-0.73-1.57-0.72-2.47-1.97-0.95-1.4-1.4-3.95t-0.45-6.8v-11.05l-3.35-0.95v-2.05zm45.29-0.5q2.9 0 5.03 0.97 2.12 0.98 3.3 2.73 1.17 1.75 1.17 4.1 0 1.85-0.77 2.85-0.78 1-2.33 1-1.4 0-2.22-0.8-0.83-0.8-0.83-2.15 0-1.25 0.68-2.15 0.67-0.9 1.82-1.25-0.75-1.45-2.12-2.1-1.38-0.65-3.43-0.65-4.1 0-5.97 2.67-1.88 2.68-1.88 8.33 0 2.45 0.33 4.22 0.32 1.78 0.97 3.03 1 1.85 2.65 2.85t3.9 1q2.3 0 4.4-1t3.6-2.85l1.5 1.2q-2 3.05-4.6 4.52-2.6 1.48-6.1 1.48t-6.07-1.43q-2.58-1.42-4.03-4.17-1.8-3.35-1.8-8.1 0-4.35 1.58-7.55 1.57-3.2 4.47-4.98 2.9-1.77 6.75-1.77zm17 3h-4.85v-1.8l4.85-0.7 0.65-6.3 4.2-0.6v6.9h6.4v2.5h-6.4v17.85q0 1.7 0.05 2.32 0.05 0.63 0.2 1.03 0.15 0.35 0.55 0.47 0.4 0.13 1.3 0.13h3.5v1.45q-2.4 0.9-4.22 1.33-1.83 0.42-2.93 0.42-2.25 0-2.9-1.85-0.2-0.6-0.3-1.55t-0.1-2.8v-18.8zm36.6 11.3h-17.45q0 3.65 1 6.05 1 2.3 2.85 3.3t4 1q2.35 0 4.3-0.98 1.95-0.97 3.5-2.67l1.6 1.2q-1.75 2.4-4.25 4.1t-6.45 1.7q-3.45 0-6.1-1.48-2.65-1.47-4.05-4.32-0.75-1.55-1.1-3.45t-0.35-4.05q0-7 3.22-10.85 3.23-3.85 8.78-3.85 5.1 0 7.87 3.17 2.78 3.18 2.78 8.78 0 0.5-0.03 0.92-0.02 0.43-0.12 1.43zm-10.8-11.6q-6 0-6.6 9.15h12.5v-1.65q0-3.6-1.53-5.55-1.52-1.95-4.37-1.95zm37.44-8.3v16.05h6.2q1.4 0 2.63-0.43 1.22-0.42 1.92-1.12 1-1.05 1.7-2.75t0.7-3.65q0-1.9-0.67-3.48-0.68-1.57-1.73-2.82-0.8-0.85-2.05-1.33-1.25-0.47-2.7-0.47h-6zm7.3 18.95h-7.3v10.95l4.75 1.05v2.15h-13.95v-2.15l4.2-1.05v-29.6l-4.2-1.05v-2.15h16.55q2.35 0 4.3 0.62 1.95 0.63 3.2 1.78 1.75 1.55 2.78 3.72 1.02 2.18 1.02 4.58 0 2.45-1.07 4.8-1.08 2.35-2.83 3.9-1.3 1.15-3.25 1.8t-4.2 0.65zm29.5-9.95q-0.2-0.15-0.47-0.23-0.28-0.07-0.53-0.07-0.6 0-1.3 0.55t-1.35 1.47q-0.65 0.93-1.2 2.13-0.7 1.7-1.1 3.72-0.4 2.03-0.4 4.18v9.35l5.4 0.95v2.05h-14.1v-2.05l3.85-0.95v-21l-3.85-0.95v-2.05h7.2l1.1 6.6h0.2q1.15-3.4 3.1-5.25t4.3-1.85q1.95 0 3.25 1.22 1.3 1.23 1.3 3.28 0 1.5-0.77 2.37-0.78 0.88-2.08 0.88t-2.05-0.83q-0.75-0.82-0.75-2.17 0-0.3 0.05-0.58 0.05-0.27 0.2-0.77zm32.6 10.35q0 3.25-0.98 6.17-0.97 2.93-2.72 4.83-1.5 1.65-3.7 2.45t-5 0.8q-2.75 0-4.9-0.78-2.15-0.77-3.65-2.37-1.7-1.85-2.63-4.58-0.92-2.72-0.92-5.92 0-3.25 0.95-6.23 0.95-2.97 2.75-4.87 1.6-1.7 3.72-2.48 2.13-0.77 4.88-0.77t4.95 0.77q2.2 0.78 3.7 2.38 1.75 1.85 2.65 4.62 0.9 2.78 0.9 5.98zm-19.15 0.05q0 3.05 0.47 5.27 0.48 2.23 1.33 3.68 0.85 1.25 2.02 1.95 1.18 0.7 3.08 0.7 3.45 0 5.15-2.35 0.9-1.3 1.32-3.6 0.43-2.3 0.43-5.3t-0.48-5.25q-0.47-2.25-1.32-3.65-0.8-1.3-2.03-1.98-1.22-0.67-3.12-0.67-3.5 0-5.05 2.3-1.8 2.8-1.8 8.9zm23.35 7.85q0-3.9 3.65-6.15t12.1-3.5q-0.2-2.95-0.55-4.6t-0.9-2.65q-0.7-1.3-1.95-1.93-1.25-0.62-2.7-0.62-1.4 0-2.53 0.5-1.12 0.5-1.52 1.35 0.7 0.5 1.02 1.3 0.33 0.8 0.33 1.5 0 1.25-0.83 1.97-0.82 0.73-2.02 0.73t-1.98-0.8q-0.77-0.8-0.77-2.25 0-2.1 1.45-3.55t3.67-2.2q2.23-0.75 4.48-0.75 2.05 0 3.77 0.62 1.73 0.63 2.93 1.83 3.1 3.1 3.1 11v7.25q0 2.45 0.32 3.4 0.33 0.95 1.43 0.95h2.25v1.5q-3.6 1.45-5.6 1.45-1.55 0-2.08-1.13-0.52-1.12-0.52-4.32h-0.2q-1.55 2.55-4.1 4t-5.5 1.45q-3.15 0-4.95-1.7t-1.8-4.65zm8.85 3.45q1.4 0 2.92-0.73 1.53-0.72 2.58-2.02 0.8-1 1.17-2.38 0.38-1.37 0.38-3.22 0-0.85-0.05-1.68-0.05-0.82-0.15-1.57-4.05 0.8-6.35 1.72-2.3 0.93-3.25 2.2-0.95 1.28-0.95 3.18 0 2.15 0.97 3.32 0.98 1.18 2.73 1.18zm28.29 0.6q2.8 0 4.58-1.15 1.77-1.15 1.77-3.2 0-1.65-1.1-2.65t-2.72-1.63q-1.63-0.62-3.28-1.07-2.05-0.65-3.95-1.53-1.9-0.87-3.1-2.42t-1.2-4.1q0-3.6 2.63-5.78 2.62-2.17 7.32-2.17 4 0 6.33 1.67 2.32 1.68 2.32 4.58 0 1.55-0.7 2.47-0.7 0.93-2 0.93-1.15 0-1.9-0.7t-0.75-1.8q0-0.95 0.5-1.73 0.5-0.77 1.3-1.12-0.75-1.05-1.92-1.53-1.18-0.47-3.03-0.47-3 0-4.5 1.07-1.5 1.08-1.5 3.18 0 1.5 0.73 2.38 0.72 0.87 2.12 1.47t3.45 1.25q1.7 0.5 3.35 1.12 1.65 0.63 3 1.53t2.15 2.25 0.8 3.35q0 2.55-1.4 4.37-1.4 1.83-3.85 2.78t-5.65 0.95q-4.4 0-7.1-1.8t-2.7-4.85q0-1.6 0.73-2.53 0.72-0.92 2.07-0.92 1.2 0 2.03 0.7 0.82 0.7 0.82 1.85 0 0.95-0.52 1.8-0.53 0.85-1.28 1.25 0.65 0.95 2.33 1.57 1.67 0.63 3.82 0.63zm22.9-1.9v9.7l4.85 0.95v2.05h-13.55v-2.05l3.85-0.95v-30l-3.85-0.95v-2.05h7.2l0.75 3.85q1.6-2.5 3.63-3.43 2.02-0.92 4.57-0.92t4.63 0.75q2.07 0.75 3.37 2.4 1.5 1.9 2.38 4.57 0.87 2.68 0.87 5.78 0 3.2-0.97 6.02-0.98 2.83-2.63 4.73-2.8 3.25-8.05 3.25-2.15 0-3.87-0.83-1.73-0.82-3.18-2.87zm-0.05-10.25q0 2.95 0.45 5.15t1.3 3.55q0.8 1.25 1.98 1.95 1.17 0.7 3.02 0.7 1.7 0 2.98-0.63 1.27-0.62 2.07-1.72 0.9-1.25 1.3-3.5t0.4-5.15q0-2.95-0.45-5.1t-1.3-3.55q-0.8-1.3-1.97-1.98-1.18-0.67-3.08-0.67-1.7 0-2.97 0.57-1.28 0.58-1.98 1.73-0.8 1.35-1.27 3.53-0.48 2.17-0.48 5.12zm45.9 0.75h-17.45q0 3.65 1 6.05 1 2.3 2.85 3.3t4 1q2.35 0 4.3-0.98 1.95-0.97 3.5-2.67l1.6 1.2q-1.75 2.4-4.25 4.1t-6.45 1.7q-3.45 0-6.1-1.48-2.65-1.47-4.05-4.32-0.75-1.55-1.1-3.45t-0.35-4.05q0-7 3.22-10.85 3.23-3.85 8.78-3.85 5.1 0 7.87 3.17 2.78 3.18 2.78 8.78 0 0.5-0.03 0.92-0.02 0.43-0.12 1.43zm-10.8-11.6q-6 0-6.6 9.15h12.5v-1.65q0-3.6-1.53-5.55-1.52-1.95-4.37-1.95zm18.45 0.3h-4.85v-1.8l4.85-0.7 0.65-6.3 4.2-0.6v6.9h6.4v2.5h-6.4v17.85q0 1.7 0.05 2.32 0.05 0.63 0.2 1.03 0.15 0.35 0.55 0.47 0.4 0.13 1.3 0.13h3.5v1.45q-2.4 0.9-4.23 1.33-1.82 0.42-2.92 0.42-2.25 0-2.9-1.85-0.2-0.6-0.3-1.55t-0.1-2.8v-18.8zm36.59 11.3h-17.45q0 3.65 1 6.05 1 2.3 2.85 3.3t4 1q2.35 0 4.3-0.98 1.95-0.97 3.5-2.67l1.6 1.2q-1.75 2.4-4.25 4.1t-6.45 1.7q-3.45 0-6.1-1.48-2.65-1.47-4.05-4.32-0.75-1.55-1.1-3.45t-0.35-4.05q0-7 3.23-10.85 3.22-3.85 8.77-3.85 5.1 0 7.88 3.17 2.77 3.18 2.77 8.78 0 0.5-0.02 0.92-0.03 0.43-0.13 1.43zm-10.8-11.6q-6 0-6.6 9.15h12.5v-1.65q0-3.6-1.52-5.55-1.53-1.95-4.38-1.95zm33.4 21.8h18l1.6-8.15h2.85v11.15h-28.15v-3.05l21.3-29.95h-15.55l-1.6 7.6h-2.6v-10.6h25.45v3.05l-21.3 29.95zm30.45 0v-21l-3.85-0.95v-2.05h8.7v24l3.85 0.95v2.05h-12.55v-2.05l3.85-0.95zm-0.7-32.05q0-1.45 0.85-2.3t2.25-0.85q1.45 0 2.3 0.85t0.85 2.3q0 1.4-0.85 2.25t-2.3 0.85-2.28-0.82q-0.82-0.83-0.82-2.28zm12.04 33 3.85-0.95v-33l-3.85-0.95v-2.05h8.7v36l3.85 0.95v2.05h-12.55v-2.05zm15.8 0 3.85-0.95v-21l-3.85-0.95v-2.05h7.2l1.1 5h0.2q1.5-2.55 4.05-4.03 2.55-1.47 5.45-1.47 4.15 0 6.15 2.7 1 1.4 1.43 3.92 0.42 2.53 0.42 6.83v11.05l3.85 0.95v2.05h-12.05v-2.05l3.35-0.95v-11.15q0-3.25-0.17-4.85-0.18-1.6-0.63-2.5-0.6-1.2-1.72-1.83-1.13-0.62-2.68-0.62-2.9 0-5 1.85-2.05 1.85-2.25 5.75v13.35l3.35 0.95v2.05h-12.05v-2.05zm36.6-0.95v-21l-3.85-0.95v-2.05h8.7v24l3.85 0.95v2.05h-12.55v-2.05l3.85-0.95zm-0.7-32.05q0-1.45 0.85-2.3t2.25-0.85q1.45 0 2.3 0.85t0.85 2.3q0 1.4-0.85 2.25t-2.3 0.85-2.28-0.82q-0.82-0.83-0.82-2.28zm25.75 7.55q2.89 0 5.02 0.97 2.12 0.98 3.3 2.73t1.18 4.1q0 1.85-0.78 2.85t-2.33 1q-1.39 0-2.22-0.8-0.82-0.8-0.82-2.15 0-1.25 0.67-2.15t1.83-1.25q-0.75-1.45-2.13-2.1-1.37-0.65-3.43-0.65-4.1 0-5.97 2.67-1.88 2.68-1.88 8.33 0 2.45 0.33 4.22 0.33 1.78 0.98 3.03 1 1.85 2.64 2.85 1.65 1 3.9 1 2.31 0 4.4-1 2.1-1 3.6-2.85l1.5 1.2q-2 3.05-4.6 4.52-2.59 1.48-6.09 1.48t-6.08-1.43q-2.58-1.42-4.02-4.17-1.81-3.35-1.81-8.1 0-4.35 1.58-7.55t4.48-4.98q2.89-1.77 6.75-1.77z" fill="#476930" data-fill-palette-color="secondary"/>
</svg>
</g>
</svg>
</g>
</svg>
</svg>
</g>
<svg width="126.52" height="114.59" viewBox="0 0 126.51876371454654 114.58814931206791">
<svg class="icon-icon-0" width="126.52" height="114.59" enable-background="new 0 0 96 96" fill="#476930" data-fill-palette-color="accent" version="1.1" viewBox="2 6.334999084472656 92.00499725341797 83.3290023803711" xml:space="preserve" xmlns="http://www.w3.org/2000/svg" xmlns:xlink="http://www.w3.org/1999/xlink"><path d="m32.524 18.46 8.716-8.712c0.78-0.78 0.78-2.048 0-2.828s-2.048-0.78-2.828 0l-10.24 10.236c-0.152 0.152-0.248 0.328-0.336 0.508h-2.9c-13.796 0-22.936 34.72-22.936 48.788 0 14.096 9.004 23.212 22.936 23.212h4.192c13.928 0 22.933-9.107 22.933-23.212 3e-3 -12.872-7.665-42.96-19.537-47.992z" data-fill-palette-color="accent"/><path d="m63.764 39.968c0.156 0.04 0.32 0.06 0.484 0.06 0.432 0 0.863-0.144 1.216-0.412 0.484-0.368 0.769-0.936 0.784-1.548 0.1-4.956 0.416-20.04-13.309-22.252-0.92-0.156-1.848 0.376-2.184 1.26-1.939 5.06-1.852 9.86 0.248 13.884 2.253 4.328 6.789 7.528 12.761 9.008z" data-fill-palette-color="accent"/><path d="m71.973 41.972 7.252-7.256c0.779-0.78 0.779-2.048 0-2.828-0.776-0.78-2.049-0.78-2.828 0l-9.448 9.456c-0.093 0.092-0.14 0.212-0.216 0.32h-3.097c-3.911 0-7.696 1.044-11.168 2.82 2.425 8.872 3.597 17.388 3.597 21.976 0 8.132-2.709 14.937-7.42 19.704 4.151 2.256 9.287 3.5 14.996 3.5h4.728c15.575 0 25.636-8.492 25.636-21.637-9e-3 -13.031-9.776-24.183-22.032-26.055z" data-fill-palette-color="accent"/></svg>
</svg>
</svg>
</svg>
<rect width="395.52" height="82.31" fill="none" visibility="hidden"/>
</g>
</svg>
</g>
</svg>
